<svg viewBox="13 1 40 93" fill="none" xmlns="http://www.w3.org/2000/svg">
  <title>ITERA match</title>
  <defs>
    <linearGradient id="fl" x1="0" y1="0" x2="0" y2="1">
      <stop offset="0" stop-color="#ffcf5c"/>
      <stop offset="0.55" stop-color="#ff8a1e"/>
      <stop offset="1" stop-color="#ff5a00"/>
    </linearGradient>
    <radialGradient id="gl" cx="0.5" cy="0.34" r="0.5">
      <stop offset="0" stop-color="#ff8a1e" stop-opacity="0.5"/>
      <stop offset="1" stop-color="#ff8a1e" stop-opacity="0"/>
    </radialGradient>
  </defs>
  <ellipse cx="32" cy="28" rx="23" ry="27" fill="url(#gl)"/>
  <path d="M32 3 C 43 21, 52 30, 45 46 C 41 56, 23 56, 19 45 C 15 34, 26 28, 32 3 Z" fill="url(#fl)"/>
  <path d="M32 22 C 38 33, 41 39, 35 47 C 31 52, 25 50, 25 43 C 25 35, 30 34, 32 22 Z" fill="#ffe6a3"/>
  <rect x="29" y="48" width="6" height="44" rx="3" fill="#e7d9c4"/>
  <ellipse cx="32" cy="50" rx="5" ry="6.5" fill="#33282a"/>
</svg>
